<svg xmlns="http://www.w3.org/2000/svg" viewBox="0 0 900 640" role="img" aria-labelledby="title desc">
  <title id="title">Sagittal Anal Canal Anatomy</title>
  <desc id="desc">Sagittal anal canal anatomy diagram for interactive peri-anal markings.</desc>
  <rect width="900" height="640" fill="#ffffff"/>
  <text x="450" y="62" fill="#151515" font-family="Arial, Helvetica, sans-serif" font-size="40" text-anchor="middle">
    Sagittal Anal Canal Anatomy
  </text>

  <g opacity="0.18" stroke="#d2d2d2" stroke-width="1">
    <line x1="0" y1="170" x2="900" y2="170"/>
    <line x1="0" y1="410" x2="900" y2="410"/>
    <line x1="300" y1="0" x2="300" y2="640"/>
    <line x1="600" y1="0" x2="600" y2="640"/>
  </g>

  <g transform="translate(120 110)">
    <path d="M42 60C70 40 108 32 138 54C176 82 180 164 163 243C152 296 135 341 122 390C116 413 99 431 74 431H44C17 431 0 410 0 382V111C0 93 12 74 42 60Z" fill="#f3e0c2"/>
    <path d="M92 38C122 27 148 30 170 49C196 70 206 104 206 162V280C206 309 216 338 239 365L274 410C280 418 275 430 264 430H212C193 430 176 420 168 404L143 354C120 307 112 252 112 196C112 147 104 92 92 38Z" fill="#f7eddc"/>

    <path d="M224 8C263 0 308 5 349 26C381 42 403 71 409 111C417 167 401 197 383 226C370 247 366 276 366 304V355C366 401 337 431 293 431C248 431 218 402 218 355V314C218 281 211 251 193 223C170 188 160 155 165 112C170 67 191 27 224 8Z" fill="#e7bfa5"/>
    <path d="M248 27C281 15 320 15 350 30C372 41 387 61 390 91C395 143 384 171 368 195C351 220 344 249 344 286V353C344 388 322 412 293 412C264 412 240 388 240 353V286C240 249 232 221 216 196C199 170 188 143 194 92C197 64 217 39 248 27Z" fill="#d5a082"/>
    <path d="M266 68C284 51 306 47 323 54C344 63 355 87 354 120C352 152 338 180 321 211C309 233 304 260 304 287V350C304 372 299 388 293 388C286 388 282 372 282 350V289C282 259 275 232 261 212C243 187 229 159 228 124C228 97 239 79 266 68Z" fill="#c68967"/>
    <path d="M279 235C284 227 289 223 294 223C301 223 307 228 311 237C317 251 313 277 298 313C295 321 291 321 288 313C274 277 271 252 279 235Z" fill="#70483b"/>

    <path d="M361 41C387 22 421 15 449 26C477 37 497 59 504 88C510 111 505 140 492 181C478 225 473 259 474 311V382C474 410 454 431 426 431H399C372 431 352 411 352 384V317C352 273 360 228 377 183C389 150 391 121 388 92C385 69 376 52 361 41Z" fill="#f4e6d2"/>
    <path d="M515 0C542 4 565 15 585 31C619 59 636 104 636 164V396C636 415 620 431 601 431H528C505 431 490 406 500 385C522 334 536 280 536 222V148C536 91 530 42 515 0Z" fill="#f3d9bb"/>

    <path d="M188 430H565" fill="none" stroke="#6e5d52" stroke-linecap="round" stroke-width="4"/>
  </g>

  <g fill="none" stroke="#7b7b7b" stroke-linecap="round" stroke-width="3">
    <line x1="630" y1="160" x2="775" y2="160"/>
    <line x1="636" y1="252" x2="775" y2="252"/>
    <line x1="620" y1="342" x2="775" y2="342"/>
    <line x1="644" y1="470" x2="775" y2="470"/>
  </g>

  <g fill="#222222" font-family="Arial, Helvetica, sans-serif">
    <text x="790" y="170" font-size="31">Rectum</text>
    <text x="790" y="242" font-size="28">Internal Anal</text>
    <text x="790" y="278" font-size="28">Sphincter</text>
    <text x="790" y="332" font-size="28">External</text>
    <text x="790" y="368" font-size="28">Sphincter</text>
    <text x="790" y="480" font-size="30">Anal Gland</text>
  </g>
</svg>
