<svg xmlns="http://www.w3.org/2000/svg" viewBox="0 0 960 640" fill="none">
  <rect width="960" height="640" fill="#f2f2f2"/>

  <path d="M195 540c58 0 112-1 162 0" stroke="#111111" stroke-width="5" stroke-linecap="round"/>
  <path d="M765 540c-58 0-112-1-162 0" stroke="#111111" stroke-width="5" stroke-linecap="round"/>
  <path d="M360 88c36 78 56 125 69 160 11 31 18 60 20 90 3 44-5 90-28 142-14 32-22 58-25 82-2 18 0 39 8 66" stroke="#111111" stroke-width="5" stroke-linecap="round"/>
  <path d="M335 84c38 80 58 126 71 161 11 30 18 59 20 88 3 44-5 90-28 142-14 33-22 59-25 84-2 16-1 36 6 60" stroke="#111111" stroke-width="5" stroke-linecap="round"/>
  <path d="M310 80c39 82 58 127 71 161 12 31 18 59 20 88 3 44-5 90-28 143-14 32-22 58-24 83-2 16-1 35 4 57" stroke="#111111" stroke-width="5" stroke-linecap="round"/>

  <path d="M600 88c-36 78-56 125-69 160-11 31-18 60-20 90-3 44 5 90 28 142 14 32 22 58 25 82 2 18 0 39-8 66" stroke="#111111" stroke-width="5" stroke-linecap="round"/>
  <path d="M625 84c-38 80-58 126-71 161-11 30-18 59-20 88-3 44 5 90 28 142 14 33 22 59 25 84 2 16 1 36-6 60" stroke="#111111" stroke-width="5" stroke-linecap="round"/>
  <path d="M650 80c-39 82-58 127-71 161-12 31-18 59-20 88-3 44 5 90 28 143 14 32 22 58 24 83 2 16 1 35-4 57" stroke="#111111" stroke-width="5" stroke-linecap="round"/>

  <path d="M85 205c28 0 44 8 56 24" stroke="#111111" stroke-width="5" stroke-linecap="round"/>
  <path d="M86 245c19 12 39 16 58 17" stroke="#111111" stroke-width="5" stroke-linecap="round"/>
  <path d="M874 205c-28 0-44 8-56 24" stroke="#111111" stroke-width="5" stroke-linecap="round"/>
  <path d="M874 245c-19 12-39 16-58 17" stroke="#111111" stroke-width="5" stroke-linecap="round"/>

  <path d="M145 230c31-8 54-5 69 10 18-4 35 1 48 13 35-5 59 7 76 23-17 5-27 13-31 24-12 9-28 12-47 8-15 8-36 8-63 0-17-15-31-36-52-61z" stroke="#111111" stroke-width="5" fill="none"/>
  <path d="M815 230c-31-8-54-5-69 10-18-4-35 1-48 13-35-5-59 7-76 23 17 5 27 13 31 24 12 9 28 12 47 8 15 8 36 8 63 0 17-15 31-36 52-61z" stroke="#111111" stroke-width="5" fill="none"/>

  <ellipse cx="266" cy="294" rx="44" ry="34" fill="#9e9e9e"/>
  <ellipse cx="694" cy="294" rx="44" ry="34" fill="#9e9e9e"/>

  <path d="M239 328c23-2 42 4 55 20" stroke="#111111" stroke-width="5" stroke-linecap="round"/>
  <path d="M665 328c23-2 42 4 55 20" stroke="#111111" stroke-width="5" stroke-linecap="round"/>
  <path d="M246 370c20-3 35 3 46 17" stroke="#111111" stroke-width="5" stroke-linecap="round"/>
  <path d="M668 370c20-3 35 3 46 17" stroke="#111111" stroke-width="5" stroke-linecap="round"/>
  <path d="M252 408c17-4 30 0 39 11" stroke="#111111" stroke-width="5" stroke-linecap="round"/>
  <path d="M669 408c17-4 30 0 39 11" stroke="#111111" stroke-width="5" stroke-linecap="round"/>
  <path d="M258 444c11-2 20 1 26 8" stroke="#111111" stroke-width="5" stroke-linecap="round"/>
  <path d="M676 444c11-2 20 1 26 8" stroke="#111111" stroke-width="5" stroke-linecap="round"/>

  <ellipse cx="240" cy="492" rx="22" ry="11" stroke="#111111" stroke-width="5"/>
  <ellipse cx="260" cy="528" rx="18" ry="9" stroke="#111111" stroke-width="5"/>
  <ellipse cx="283" cy="560" rx="16" ry="8" stroke="#111111" stroke-width="5"/>
  <ellipse cx="720" cy="492" rx="22" ry="11" stroke="#111111" stroke-width="5"/>
  <ellipse cx="700" cy="528" rx="18" ry="9" stroke="#111111" stroke-width="5"/>
  <ellipse cx="677" cy="560" rx="16" ry="8" stroke="#111111" stroke-width="5"/>

  <path d="M430 410c6 18 18 18 24 0 6 18 18 18 24 0 6 18 18 18 24 0 6 18 18 18 24 0 6 18 18 18 24 0" stroke="#111111" stroke-width="5" stroke-linecap="round"/>
</svg>
